<?xml version="1.0" standalone="no"?>
<!DOCTYPE svg PUBLIC "-//W3C//DTD SVG 20010904//EN"
 "http://www.w3.org/TR/2001/REC-SVG-20010904/DTD/svg10.dtd">
<svg version="1.0" xmlns="http://www.w3.org/2000/svg"
 width="512.000000pt" height="512.000000pt" viewBox="0 0 512.000000 512.000000"
 preserveAspectRatio="xMidYMid meet">
<metadata>
Created by potrace 1.14, written by Peter Selinger 2001-2017
</metadata>
<g transform="translate(0.000000,512.000000) scale(0.100000,-0.100000)"
fill="#000000" stroke="none">
<path d="M32 5087 c-32 -33 -32 -33 -32 -140 0 -100 1 -107 17 -98 10 5 76 67
147 138 l128 128 -37 3 c-28 3 -44 -3 -64 -20 -25 -23 -26 -23 -7 0 l19 22
-69 0 c-66 0 -72 -2 -102 -33z m38 -110 c0 -2 -15 -16 -32 -33 l-33 -29 29 33
c28 30 36 37 36 29z"/>
<path d="M405 5044 c-71 -88 -207 -222 -322 -318 l-83 -68 0 -64 c0 -49 3 -63
12 -58 10 6 11 4 1 -7 -7 -7 -13 -30 -13 -51 l0 -39 58 42 c208 152 477 420
610 606 l22 32 -112 0 -113 0 -60 -75z m85 -77 c0 -2 -12 -14 -27 -28 l-28
-24 24 28 c23 25 31 32 31 24z m-60 -70 c0 -1 -37 -38 -82 -82 l-83 -80 80 83
c74 76 85 87 85 79z m-190 -180 c0 -2 -12 -14 -27 -28 l-28 -24 24 28 c23 25
31 32 31 24z m-131 -120 c-2 -1 -15 -11 -29 -22 l-25 -20 19 23 c11 12 24 22
29 22 6 0 8 -1 6 -3z"/>
<path d="M840 5075 c-14 -25 -28 -45 -31 -45 -4 0 -21 -21 -37 -48 -17 -26
-40 -57 -51 -69 -11 -12 -42 -48 -67 -80 -66 -83 -205 -222 -304 -306 -47 -40
-89 -77 -95 -83 -10 -11 -151 -110 -217 -154 -38 -25 -38 -25 -38 -94 0 -64 1
-68 18 -55 15 12 15 11 -1 -8 -12 -13 -17 -33 -15 -53 l3 -31 112 67 c380 227
729 579 947 956 l27 47 -113 0 -114 1 -24 -45z m100 -79 c0 -2 -8 -10 -17 -17
-16 -13 -17 -12 -4 4 13 16 21 21 21 13z m-70 -99 c0 -2 -10 -12 -22 -23 l-23
-19 19 23 c18 21 26 27 26 19z m-40 -51 c0 -2 -8 -10 -17 -17 -16 -13 -17 -12
-4 4 13 16 21 21 21 13z m-30 -40 c0 -2 -8 -10 -17 -17 -16 -13 -17 -12 -4 4
13 16 21 21 21 13z m-47 -58 c-11 -13 -29 -34 -41 -47 -12 -14 -22 -22 -22
-18 0 9 70 87 78 87 3 0 -4 -10 -15 -22z m-83 -91 c0 -1 -37 -38 -82 -82 l-83
-80 80 83 c74 76 85 87 85 79z m-216 -215 c-12 -9 -41 -32 -65 -51 -36 -27
-34 -24 11 18 30 28 60 50 65 50 6 1 0 -7 -11 -17z m-174 -137 c0 -2 -10 -9
-22 -15 -22 -11 -22 -10 -4 4 21 17 26 19 26 11z m-50 -29 c0 -2 -8 -10 -17
-17 -16 -13 -17 -12 -4 4 13 16 21 21 21 13z m-60 -50 c0 -2 -7 -7 -16 -10 -8
-3 -12 -2 -9 4 6 10 25 14 25 6z m-100 -61 c-7 -8 -17 -15 -23 -15 -6 0 -2 7
9 15 25 19 30 19 14 0z"/>
<path d="M1237 5062 c-15 -31 -32 -64 -37 -72 -5 -8 -26 -44 -47 -80 -48 -82
-99 -161 -114 -179 -6 -7 -26 -35 -44 -62 -58 -85 -234 -277 -334 -361 -53
-46 -100 -88 -106 -94 -10 -10 -105 -78 -197 -140 -52 -35 -184 -112 -288
-167 l-65 -35 -3 -66 c-3 -59 -1 -65 15 -60 17 5 17 5 0 -6 -18 -12 -25 -80
-7 -80 12 0 169 69 249 109 68 35 147 41 204 17 31 -13 95 -72 86 -79 -16 -13
-221 -107 -231 -107 -8 0 -18 -4 -23 -9 -9 -8 -190 -76 -260 -97 l-30 -9 -2
-112 -2 -111 150 39 c83 21 209 59 281 84 72 24 135 42 140 39 4 -3 8 -52 8
-109 l0 -105 -28 -6 c-15 -3 -55 -15 -90 -25 -35 -10 -66 -18 -70 -17 -4 1
-41 -6 -82 -15 -152 -34 -220 -47 -249 -47 -56 0 -61 -7 -61 -75 0 -58 2 -64
23 -68 l22 -4 -22 -2 c-20 -1 -23 -7 -23 -42 l0 -41 58 6 c148 15 422 38 467
40 l50 1 3 -107 3 -108 -291 0 -290 0 1 -109 0 -110 42 -5 c23 -4 89 -11 147
-16 207 -21 365 -43 377 -52 9 -7 13 -43 13 -115 l0 -104 -37 6 c-21 4 -60 13
-88 20 -27 8 -95 23 -150 34 -333 67 -305 68 -305 -10 0 -47 4 -65 17 -75 17
-13 17 -14 1 -8 -15 5 -18 0 -18 -32 l0 -39 78 -19 c166 -40 480 -148 494
-170 16 -24 5 -206 -12 -206 -5 0 -53 21 -107 46 -156 72 -418 174 -448 174
-3 0 -5 -29 -5 -65 0 -50 4 -66 18 -75 16 -11 16 -11 -1 -6 -14 4 -17 -1 -17
-34 0 -31 4 -40 23 -45 12 -4 89 -39 171 -78 155 -74 162 -83 69 -86 -36 -1
-49 -26 -41 -81 3 -17 2 -30 -1 -30 -4 0 -55 25 -114 55 l-107 55 0 -109 0
-108 97 -59 c442 -267 779 -633 1035 -1122 l63 -120 98 -1 c53 0 97 1 97 3 0
22 -146 329 -205 431 -20 33 -39 69 -44 80 -5 12 -16 27 -25 34 -9 7 -16 18
-16 24 0 5 -15 30 -32 54 -184 249 -309 388 -448 499 -41 32 -79 64 -85 70
-16 19 -203 144 -215 144 -5 0 -10 4 -10 9 0 5 -14 15 -32 22 -32 13 -32 13
-8 20 39 11 251 10 290 -1 48 -13 234 -162 352 -282 251 -257 465 -613 608
-1015 l33 -93 99 0 c95 0 99 1 94 20 -3 11 -8 30 -11 43 -9 36 -66 219 -82
262 -8 22 -16 47 -18 55 -9 43 -91 232 -157 365 -57 115 -201 347 -225 364 -5
3 -24 26 -43 51 -19 25 -77 89 -130 144 l-95 99 165 -7 c102 -5 170 -12 179
-19 29 -24 160 -207 210 -296 142 -247 288 -662 361 -1024 11 -56 12 -57 45
-57 18 0 36 6 38 13 4 9 6 9 6 0 1 -9 20 -13 61 -13 l59 0 -5 53 c-17 173
-108 643 -155 797 -71 235 -87 277 -169 445 -79 162 -161 282 -267 390 -131
134 -151 150 -328 261 -53 33 -245 124 -261 124 -14 0 -16 17 -12 134 1 74 6
137 9 141 4 3 59 -8 123 -25 765 -202 1024 -577 1165 -1680 20 -152 61 -572
61 -617 0 -20 5 -23 34 -23 34 0 35 1 39 47 l3 48 2 -47 2 -48 60 0 60 0 0
663 c0 364 3 679 6 700 l7 37 158 0 c133 0 159 -2 159 -15 0 -8 -9 -52 -19
-97 -48 -206 -99 -588 -125 -948 -9 -113 -18 -235 -21 -272 l-6 -68 35 0 c28
0 35 4 39 23 l4 22 2 -22 c1 -21 6 -23 59 -23 l59 0 18 103 c10 56 20 118 21
137 5 57 54 301 85 425 47 187 68 259 121 405 36 100 136 311 154 325 7 6 17
22 23 36 45 121 309 386 495 496 48 29 227 116 229 112 2 -2 26 -33 53 -69 28
-36 60 -79 73 -97 l22 -32 -49 -25 c-85 -43 -253 -161 -344 -240 -275 -242
-478 -598 -623 -1093 -30 -101 -52 -194 -110 -460 -5 -20 -1 -23 29 -23 19 0
37 6 39 13 4 9 6 9 6 0 1 -18 120 -18 125 0 2 6 12 41 21 77 28 99 75 244 101
305 7 17 16 42 19 58 4 15 11 30 16 33 5 3 9 13 9 22 0 9 38 93 84 186 119
241 243 422 400 584 128 133 403 342 450 342 10 0 84 -92 109 -136 4 -7 -25
-33 -71 -65 -422 -290 -720 -696 -927 -1264 -24 -66 -47 -128 -50 -137 -6 -15
-1 -18 27 -18 26 0 38 6 47 22 l11 23 -6 -22 c-5 -22 -3 -23 56 -23 57 0 61 2
71 27 10 28 19 47 69 158 68 152 122 249 228 410 99 149 170 236 315 383 123
125 212 201 326 279 25 18 51 36 56 40 14 11 137 87 155 96 8 4 35 19 60 33
97 56 322 164 340 164 6 0 10 29 10 65 0 57 -2 64 -17 59 -17 -5 -17 -5 0 6
11 7 17 24 17 45 l0 35 -95 -35 c-52 -19 -147 -57 -212 -84 -64 -28 -121 -51
-125 -51 -4 0 -8 43 -8 95 0 85 2 95 18 95 10 0 22 4 28 9 8 7 99 39 306 107
26 9 55 17 65 18 15 2 19 14 21 64 2 51 0 61 -15 65 -17 4 -17 5 0 6 13 1 17
10 17 37 l0 36 -42 -7 c-39 -7 -339 -78 -380 -91 -16 -5 -18 4 -18 89 l0 95
73 16 c39 9 102 21 140 26 37 6 86 14 110 20 23 5 59 10 80 10 l37 0 0 64 c0
59 -2 65 -22 69 l-23 4 23 2 c18 1 22 7 22 36 l0 36 -77 -6 c-43 -4 -127 -10
-188 -16 -60 -5 -125 -9 -142 -9 l-33 0 0 95 0 95 220 0 220 0 0 65 0 65 -92
0 c-50 0 -88 3 -84 7 3 4 45 6 92 4 l85 -2 -3 33 -3 33 -155 12 c-85 7 -182
16 -215 20 l-60 8 -3 93 -3 92 33 0 c18 0 61 -7 94 -15 34 -8 86 -17 115 -20
30 -2 87 -11 127 -19 l72 -14 0 63 c0 60 -2 64 -27 74 l-28 11 27 -5 c26 -5
28 -3 28 28 l0 34 -167 41 c-93 23 -192 49 -220 58 l-53 16 0 94 0 94 28 -6
c15 -4 36 -11 47 -17 11 -6 33 -14 50 -18 16 -4 64 -20 105 -34 41 -15 98 -33
125 -40 28 -7 58 -16 68 -20 15 -6 17 0 17 58 0 43 -4 67 -12 70 -10 4 -10 6
0 6 7 1 12 14 12 34 0 31 -2 33 -92 65 -50 19 -125 49 -167 67 l-76 34 45 20
c53 23 216 46 233 33 7 -5 22 -13 35 -16 21 -7 22 -5 22 53 0 46 -4 63 -18 71
-16 11 -16 11 1 6 14 -4 17 1 17 28 0 33 -3 36 -104 89 -457 242 -833 588
-1081 995 l-49 81 -113 0 -113 1 29 -54 c183 -338 337 -539 591 -772 111 -102
414 -314 448 -314 7 0 12 -4 12 -10 0 -5 11 -12 25 -16 14 -3 25 -11 25 -16 0
-7 -56 -8 -172 -3 l-173 7 -69 46 c-354 235 -659 607 -847 1034 l-42 97 -112
0 -112 1 17 -48 c9 -26 22 -60 28 -75 7 -16 12 -32 12 -37 0 -5 6 -24 14 -42
8 -18 25 -58 38 -88 66 -159 227 -451 268 -490 3 -3 26 -34 52 -70 53 -76 315
-334 375 -370 22 -14 49 -38 60 -53 10 -15 29 -30 43 -33 14 -3 32 -9 40 -14
31 -19 206 -116 232 -129 14 -7 29 -23 32 -35 7 -28 10 -185 4 -192 -3 -2 -49
14 -103 36 -469 196 -795 482 -1011 890 -92 173 -198 449 -254 663 l-23 87
-40 0 c-30 0 -38 -3 -34 -14 7 -18 19 -95 13 -81 -3 6 -10 29 -16 53 l-11 42
-68 0 -68 0 14 -72 c8 -40 21 -109 29 -153 21 -111 52 -251 70 -310 8 -27 22
-75 30 -105 29 -98 66 -205 75 -215 5 -5 9 -16 9 -24 0 -15 124 -275 142 -296
4 -5 34 -47 66 -92 86 -123 145 -187 246 -267 108 -86 175 -130 276 -183 88
-47 272 -121 385 -156 156 -48 187 -57 199 -57 6 0 28 -5 49 -11 l37 -10 0
-92 c0 -51 -4 -98 -9 -106 -8 -13 -38 -10 -205 17 -298 49 -591 129 -728 198
-55 28 -98 77 -418 485 -117 148 -217 269 -224 269 -20 0 -85 238 -125 455
-24 131 -65 431 -82 603 l-12 122 -38 0 c-36 0 -38 -1 -42 -37 l-4 -38 -1 38
-2 37 -70 0 -70 0 0 -589 0 -590 -37 -3 -38 -3 -3 -54 c-3 -58 5 -71 47 -71
l23 0 -5 -347 c-5 -344 -18 -501 -48 -577 -40 -102 -148 -149 -369 -161 l-135
-7 51 54 c146 152 221 353 211 563 -6 118 -30 201 -85 296 -38 64 -39 68 -25
100 94 221 172 621 217 1114 9 94 18 194 21 223 l5 52 -39 0 c-29 0 -41 -5
-44 -17 -4 -17 -5 -17 -6 0 -1 14 -11 17 -71 17 -66 0 -70 -1 -71 -22 -1 -53
-16 -128 -70 -358 -17 -69 -32 -134 -34 -144 -5 -20 -17 -60 -53 -176 -44
-138 -121 -315 -190 -432 -40 -69 -47 -76 -67 -68 -19 7 -138 30 -242 46 l-31
5 62 82 c168 224 299 505 401 862 23 82 45 162 49 177 l6 27 -112 0 -113 1
-18 -58 c-68 -214 -251 -585 -349 -707 -4 -5 -29 -39 -55 -75 -26 -36 -110
-127 -186 -202 l-139 -138 -174 0 -175 0 123 92 c255 189 473 445 637 747 47
86 129 259 151 316 l9 24 -112 0 -112 0 -28 -57z m2193 3 c0 -5 -5 -3 -10 5
-5 8 -10 20 -10 25 0 6 5 3 10 -5 5 -8 10 -19 10 -25z m-1645 -36 c-8 -19 -13
-25 -9 -14 3 11 8 34 12 50 3 17 8 23 10 14 1 -9 -4 -32 -13 -50z m2074 -3
c-3 -3 -11 5 -18 17 -13 21 -12 21 5 5 10 -10 16 -20 13 -22z m-400 -31 c0 -5
-6 1 -14 15 -8 14 -14 30 -14 35 0 6 6 -1 14 -15 8 -14 14 -29 14 -35z m-829
-205 c-5 -28 -18 116 -18 200 1 34 5 11 12 -60 6 -63 9 -126 6 -140z m-1289
171 c-17 -34 -33 -61 -36 -61 -3 0 10 29 27 65 18 35 34 63 36 61 2 -2 -11
-31 -27 -65z m849 -41 c-7 -44 -15 -79 -17 -76 -2 2 1 41 8 85 6 45 14 80 16
77 3 -3 0 -42 -7 -86z m847 58 c-3 -8 -6 -5 -6 6 -1 11 2 17 5 13 3 -3 4 -12
1 -19z m-1277 -43 c-16 -47 -23 -40 -8 8 6 20 13 35 16 33 2 -3 -1 -21 -8 -41z
m1725 4 c9 -17 15 -33 13 -35 -3 -2 -12 12 -21 31 -21 43 -13 47 8 4z m-421
-24 c3 -8 1 -15 -4 -15 -6 0 -10 7 -10 15 0 8 2 15 4 15 2 0 6 -7 10 -15z
m890 -31 c3 -8 2 -12 -4 -9 -6 3 -10 10 -10 16 0 14 7 11 14 -7z m-411 -66 c9
-21 15 -38 12 -38 -6 0 -55 96 -55 107 0 11 23 -27 43 -69z m-2266 22 c-6 -16
-15 -30 -19 -30 -5 0 -2 14 7 30 9 17 17 30 19 30 3 0 -1 -13 -7 -30z m443
-17 c-11 -17 -11 -17 -6 0 3 10 6 24 7 30 0 9 2 9 5 0 3 -7 0 -20 -6 -30z
m1374 -33 c4 -24 3 -28 -2 -15 -14 31 -24 83 -13 65 5 -8 11 -31 15 -50z
m-927 -12 c-3 -7 -5 -2 -5 12 0 14 2 19 5 13 2 -7 2 -19 0 -25z m-932 -7 c-8
-17 -19 -33 -25 -36 -5 -3 -1 10 11 29 25 43 36 48 14 7z m2808 -11 c37 -52
28 -52 -13 0 -17 22 -28 40 -23 40 4 0 21 -18 36 -40z m-2363 -47 c-30 -80
-140 -313 -162 -342 -10 -13 -18 -27 -18 -31 0 -8 -60 -104 -77 -125 -5 -5
-23 -31 -41 -57 -18 -26 -59 -76 -92 -110 -33 -35 -60 -66 -60 -70 0 -5 -5 -8
-11 -8 -6 0 11 24 38 54 67 73 153 188 215 288 56 90 174 331 203 415 11 29
21 51 23 48 2 -2 -6 -30 -18 -62z m471 -53 c-22 -96 -27 -91 -10 9 13 77 20
100 25 86 2 -6 -5 -48 -15 -95z m975 33 c9 -32 23 -70 31 -85 7 -16 10 -28 5
-28 -7 0 -62 145 -62 164 0 21 12 -2 26 -51z m-457 -247 c1 -12 -3 -16 -8 -10
-8 8 -33 236 -30 279 1 20 37 -234 38 -269z m940 248 c12 -20 20 -38 18 -40
-2 -2 -14 14 -26 36 -28 50 -21 53 8 4z m-2426 -13 c-10 -17 -21 -31 -26 -31
-4 0 3 15 15 34 28 42 35 40 11 -3z m2908 12 c13 -16 12 -17 -3 -4 -10 7 -18
15 -18 17 0 8 8 3 21 -13z m89 -98 c30 -30 50 -55 45 -55 -6 0 -32 25 -58 55
-27 30 -47 55 -45 55 2 0 28 -25 58 -55z m-3037 33 c-5 -7 -19 -30 -32 -51
-13 -21 -26 -36 -28 -33 -5 5 56 96 64 96 2 0 0 -6 -4 -12z m2536 -50 c13 -21
20 -38 18 -38 -3 0 -20 24 -37 53 -18 28 -25 45 -18 37 8 -8 25 -32 37 -52z
m-479 -86 c0 -16 111 -243 147 -303 58 -94 88 -142 98 -153 6 -6 36 -42 66
-81 64 -80 189 -202 249 -241 22 -15 40 -30 40 -33 0 -4 22 -20 50 -36 27 -17
50 -33 50 -37 0 -5 4 -8 10 -8 5 0 47 -22 94 -50 47 -27 87 -50 90 -50 3 0 38
-15 78 -33 40 -18 93 -41 118 -51 98 -39 120 -49 117 -53 -7 -7 -243 91 -346
144 -408 209 -676 508 -866 967 -19 47 -35 88 -35 93 1 12 39 -60 40 -75z
m-1078 -7 c-9 -35 -17 -63 -19 -61 -7 7 20 135 27 131 4 -3 0 -34 -8 -70z
m-1052 41 c0 -2 -8 -10 -17 -17 -16 -13 -17 -12 -4 4 13 16 21 21 21 13z
m2658 -18 c7 -13 19 -33 28 -45 9 -13 14 -23 12 -23 -3 0 -19 20 -37 45 -18
25 -28 45 -23 45 5 0 14 -10 20 -22z m662 -125 c0 -8 -93 73 -130 113 -19 21
2 5 48 -36 45 -40 82 -75 82 -77z m-3394 49 c-25 -32 -62 -73 -83 -92 l-37
-35 30 35 c70 84 128 150 132 150 2 0 -17 -26 -42 -58z m2822 -45 c17 -24 52
-68 78 -98 27 -30 36 -43 21 -29 -40 35 -150 170 -139 170 5 0 23 -19 40 -43z
m-1103 -282 c22 -112 27 -161 16 -150 -10 11 -57 300 -65 405 -3 39 3 15 15
-60 11 -69 26 -156 34 -195z m-630 201 c-10 -39 -26 -95 -36 -123 -10 -29 -17
-53 -15 -53 2 0 -9 -37 -26 -82 -16 -46 -33 -94 -37 -108 -7 -21 -50 -116 -58
-129 -2 -2 -5 -2 -8 1 -3 3 15 54 41 114 48 115 99 276 130 409 10 44 20 71
22 61 2 -10 -4 -50 -13 -90z m2340 53 c11 -17 -1 -21 -15 -4 -8 9 -8 15 -2 15
6 0 14 -5 17 -11z m46 -46 c13 -16 12 -17 -3 -4 -17 13 -22 21 -14 21 2 0 10
-8 17 -17z m99 -76 c0 -4 -16 4 -35 19 -45 34 -45 41 0 12 19 -13 35 -27 35
-31z m-3755 3 c-16 -16 -56 -51 -89 -77 -70 -53 -60 -42 38 46 72 65 99 81 51
31z m3878 -89 c7 -8 -7 -2 -30 14 -24 15 -43 30 -43 32 0 7 61 -31 73 -46z
m-519 -117 c14 -9 26 -21 26 -26 0 -12 -65 39 -134 105 -51 48 -51 48 16 -7
37 -30 78 -62 92 -72z m581 78 c-3 -3 -11 0 -18 7 -9 10 -8 11 6 5 10 -3 15
-9 12 -12z m-4129 -26 c-21 -18 -53 -41 -70 -50 -30 -16 -30 -16 -7 1 14 10
43 32 65 50 54 42 62 41 12 -1z m4169 4 c3 -6 -1 -7 -9 -4 -18 7 -21 14 -7 14
6 0 13 -4 16 -10z m75 -46 c0 -2 -13 2 -30 11 -16 9 -30 18 -30 21 0 2 14 -2
30 -11 17 -9 30 -18 30 -21z m70 -40 c0 -2 -9 0 -20 6 -11 6 -20 13 -20 16 0
2 9 0 20 -6 11 -6 20 -13 20 -16z m-4430 2 c0 -2 -8 -10 -17 -17 -16 -13 -17
-12 -4 4 13 16 21 21 21 13z m3769 -53 c2 -2 0 -3 -5 -3 -5 0 -22 12 -39 26
l-30 26 35 -23 c19 -12 37 -24 39 -26z m707 31 c18 -14 18 -14 -6 -3 -31 14
-36 19 -24 19 6 0 19 -7 30 -16z m-4532 -19 c-10 -8 -23 -15 -28 -15 -6 0 -1
7 10 15 10 8 23 15 28 15 6 0 1 -7 -10 -15z m4601 -15 c3 -6 -1 -7 -9 -4 -18
7 -21 14 -7 14 6 0 13 -4 16 -10z m-3633 -131 c60 -12 107 -28 126 -42 25 -20
-160 -189 -318 -292 -88 -58 -280 -155 -305 -155 -16 0 -17 12 -13 137 2 91 8
138 15 140 25 9 181 118 241 169 64 54 64 54 132 54 38 0 93 -5 122 -11z
m-1287 -28 c-6 -5 -21 -11 -35 -15 -21 -5 -20 -3 5 9 35 17 42 18 30 6z m-70
-31 c-3 -5 -12 -10 -18 -10 -7 0 -6 4 3 10 19 12 23 12 15 0z m4705 -75 c14
-8 21 -14 15 -14 -5 0 -21 6 -35 14 -14 8 -20 14 -15 14 6 0 21 -6 35 -14z
m80 -35 c8 -5 11 -10 5 -10 -5 0 -17 5 -25 10 -8 5 -10 10 -5 10 6 0 17 -5 25
-10z m85 -30 c8 -13 -5 -13 -25 0 -13 8 -13 10 2 10 9 0 20 -4 23 -10z m105
-40 c8 -5 11 -10 5 -10 -5 0 -17 5 -25 10 -8 5 -10 10 -5 10 6 0 17 -5 25 -10z
m-3300 -30 c0 -17 -104 -115 -190 -179 -71 -53 -302 -177 -343 -185 -7 -1 -29
-10 -51 -19 -21 -9 -45 -17 -53 -17 -8 0 -24 -5 -35 -11 -23 -12 -139 -41
-144 -36 -2 1 56 22 129 46 259 85 463 199 599 336 72 72 88 84 88 65z m-1175
-20 c-3 -5 -14 -10 -23 -10 -15 0 -15 2 -2 10 20 13 33 13 25 0z m-45 -14 c0
-3 -13 -11 -30 -20 -16 -8 -30 -11 -30 -6 0 7 23 18 58 29 1 1 2 -1 2 -3z
m-81 -36 c-27 -16 -160 -62 -165 -57 -3 2 33 18 78 34 87 32 114 39 87 23z
m-214 -75 c-16 -8 -37 -14 -45 -14 -8 0 1 7 20 14 46 18 64 17 25 0z m-130
-40 c-16 -8 -39 -14 -50 -14 -11 0 -2 6 20 14 52 17 68 17 30 0z m4375 -15
c13 -9 13 -10 0 -9 -8 0 -24 4 -35 9 l-20 9 20 0 c11 0 27 -4 35 -9z m-2671
-112 c2 -117 -27 -264 -69 -348 -26 -51 -98 -129 -149 -162 l-45 -28 -313 0
-313 0 0 109 c0 173 -4 165 103 186 201 38 416 110 557 187 83 45 209 136 211
152 3 30 17 -47 18 -96z m2918 36 c-3 -3 -12 -4 -19 -1 -8 3 -5 6 6 6 11 1 17
-2 13 -5z m120 -31 c-7 -6 -67 9 -67 17 0 5 16 3 35 -3 19 -6 33 -12 32 -14z
m40 -9 c-3 -3 -12 -4 -19 -1 -8 3 -5 6 6 6 11 1 17 -2 13 -5z m108 -19 c53
-17 34 -18 -35 0 -30 7 -44 13 -30 13 14 0 43 -5 65 -13z m-4422 -192 c-7 -2
-19 -2 -25 0 -7 3 -2 5 12 5 14 0 19 -2 13 -5z m-128 -23 c-49 -10 -94 -15
-100 -12 -5 4 22 12 60 18 111 18 139 14 40 -6z m-142 -17 c-7 -2 -19 -2 -25
0 -7 3 -2 5 12 5 14 0 19 -2 13 -5z m-65 -10 c-10 -2 -26 -2 -35 0 -10 3 -2 5
17 5 19 0 27 -2 18 -5z m3509 -7 c15 -1 62 -10 103 -19 80 -17 228 -39 405
-59 61 -7 100 -14 87 -16 -43 -7 -556 62 -624 84 -10 3 -18 10 -18 15 0 6 4 8
9 4 5 -3 22 -7 38 -9z m-3568 0 c-2 -2 -29 -6 -59 -9 -36 -4 -46 -3 -30 3 25
8 97 13 89 6z m4254 -103 c-13 -2 -33 -2 -45 0 -13 2 -3 4 22 4 25 0 35 -2 23
-4z m300 -20 c-7 -2 -19 -2 -25 0 -7 3 -2 5 12 5 14 0 19 -2 13 -5z m110 -10
c-13 -2 -35 -2 -50 0 -16 2 -5 4 22 4 28 0 40 -2 28 -4z m-345 -223 c2 -41 0
-90 -3 -107 -5 -29 -10 -33 -38 -33 -28 0 -176 -18 -293 -36 l-42 -6 -100 123
c-55 68 -98 127 -96 131 3 5 132 7 287 6 l282 -3 3 -75z m-958 -12 c35 -46 93
-121 128 -167 l64 -85 -113 -38 c-318 -106 -506 -254 -653 -512 -39 -68 -44
-74 -51 -54 -4 13 -10 224 -12 470 l-5 446 54 6 c78 9 153 12 348 14 l175 2
65 -82z m-830 -385 c0 -438 -5 -511 -43 -579 -25 -44 -104 -93 -149 -94 l-28
0 0 138 c0 236 20 633 36 726 21 112 53 171 113 203 24 13 50 23 58 23 11 0
13 -75 13 -417z m-2582 340 c-10 -2 -28 -2 -40 0 -13 2 -5 4 17 4 22 1 32 -1
23 -4z m287 -17 c97 -9 120 -13 75 -14 -36 0 -119 5 -185 12 -66 8 -100 14
-75 14 25 0 108 -5 185 -12z m671 -77 c272 -47 432 -94 587 -173 347 -176 497
-459 591 -1116 13 -96 27 -209 30 -250 l5 -75 -14 85 c-8 47 -17 112 -20 145
-9 99 -55 345 -87 465 -87 324 -215 531 -407 662 -171 116 -431 205 -734 249
-38 6 -78 14 -90 19 l-22 9 21 0 c12 1 75 -8 140 -20z m3977 -16 c-13 -2 -33
-2 -45 0 -13 2 -3 4 22 4 25 0 35 -2 23 -4z m-193 -12 c0 -4 -32 -12 -71 -15
-39 -4 -78 -10 -88 -13 -9 -4 -13 -2 -8 2 4 5 42 14 85 21 42 6 78 12 80 13 1
0 2 -3 2 -8z m93 2 c-7 -2 -21 -2 -30 0 -10 3 -4 5 12 5 17 0 24 -2 18 -5z
m-480 -60 c-7 -2 -19 -2 -25 0 -7 3 -2 5 12 5 14 0 19 -2 13 -5z m-97 -12 c-3
-4 -25 -11 -48 -14 -24 -4 -59 -9 -78 -11 -19 -3 -3 3 35 13 82 22 98 24 91
12z m47 2 c-7 -2 -19 -2 -25 0 -7 3 -2 5 12 5 14 0 19 -2 13 -5z m-613 -141
c0 -4 -17 -14 -37 -21 -177 -63 -381 -190 -505 -315 -73 -73 -188 -231 -219
-298 -11 -25 -29 -38 -29 -22 0 8 47 89 98 169 59 92 218 250 315 313 80 52
275 152 299 152 7 1 24 7 38 15 29 16 40 18 40 7z m678 -102 c-5 -129 -13
-132 -99 -41 -48 50 -67 77 -60 84 8 8 124 43 154 46 5 1 7 -39 5 -89z m-4421
34 c-3 -3 -12 -4 -19 -1 -8 3 -5 6 6 6 11 1 17 -2 13 -5z m132 -30 c9 -8 -45
-2 -64 6 -14 7 -8 8 20 3 22 -3 42 -7 44 -9z m71 -18 c25 -8 36 -15 25 -15
-21 1 -98 27 -80 28 6 0 30 -6 55 -13z m101 -28 c22 -6 39 -15 39 -19 0 -4
-15 -2 -32 5 -18 7 -40 16 -48 19 -28 10 3 7 41 -5z m4706 -4 c-3 -3 -12 -4
-19 -1 -8 3 -5 6 6 6 11 1 17 -2 13 -5z m-92 -19 c-16 -8 -37 -14 -45 -14 -8
0 1 7 20 14 46 18 64 17 25 0z m-4465 -26 c27 -15 -11 -10 -45 6 l-30 14 30
-6 c17 -3 37 -9 45 -14z m4357 -5 c-3 -3 -12 -4 -19 -1 -8 3 -5 6 6 6 11 1 17
-2 13 -5z m-4312 -14 c3 -6 -1 -7 -9 -4 -18 7 -21 14 -7 14 6 0 13 -4 16 -10z
m4212 -16 c-3 -3 -12 -4 -19 -1 -8 3 -5 6 6 6 11 1 17 -2 13 -5z m-52 -14
c-27 -12 -43 -12 -25 0 8 5 22 9 30 9 10 0 8 -3 -5 -9z m-3700 -183 c212 -132
388 -304 525 -512 60 -93 206 -382 197 -392 -4 -3 -9 3 -13 13 -24 71 -180
365 -203 384 -3 3 -23 32 -45 64 -90 138 -376 391 -533 473 -18 9 -33 21 -33
25 0 10 -4 12 105 -55z m3155 -40 c0 -2 -38 -27 -85 -56 -346 -211 -602 -509
-776 -903 -19 -43 -35 -74 -37 -69 -3 9 133 294 150 316 5 6 31 46 59 89 107
167 254 329 388 429 31 23 61 47 66 53 6 6 28 22 50 35 22 13 45 27 50 32 6 4
35 23 65 42 52 31 70 40 70 32z m-4070 -22 c14 -8 21 -14 15 -14 -5 0 -21 6
-35 14 -14 8 -20 14 -15 14 6 0 21 -6 35 -14z m80 -41 c0 -2 -9 0 -20 6 -11 6
-20 13 -20 16 0 2 9 0 20 -6 11 -6 20 -13 20 -16z m903 -91 c37 -30 67 -56 67
-60 0 -10 -101 7 -129 22 -50 26 -101 100 -101 147 0 11 72 -37 163 -109z
m3947 87 c-8 -5 -19 -10 -25 -10 -5 0 -3 5 5 10 8 5 20 10 25 10 6 0 3 -5 -5
-10z m-4734 -48 c-5 -4 -86 36 -86 43 0 3 20 -5 45 -17 24 -12 43 -23 41 -26z
m4674 24 c0 -2 -9 -6 -20 -9 -11 -3 -18 -1 -14 4 5 9 34 13 34 5z m-50 -20 c0
-2 -7 -7 -16 -10 -8 -3 -12 -2 -9 4 6 10 25 14 25 6z m-51 -20 c-2 -2 -15 -9
-29 -15 -24 -11 -24 -11 -6 3 16 13 49 24 35 12z m-4470 -32 c14 -12 -19 -1
-35 12 -18 14 -18 14 6 3 14 -6 27 -13 29 -15z m4410 2 c-2 -2 -15 -9 -29 -15
-24 -11 -24 -11 -6 3 16 13 49 24 35 12z m-4359 -32 c0 -2 -9 0 -20 6 -11 6
-20 13 -20 16 0 2 9 0 20 -6 11 -6 20 -13 20 -16z m4274 -8 c-10 -8 -21 -12
-24 -10 -5 6 21 24 34 24 6 0 1 -6 -10 -14z m-264 -150 c0 -2 -25 -20 -56 -40
-31 -21 -53 -33 -49 -26 4 6 28 24 53 40 49 31 52 32 52 26z m-3622 -110 c87
-72 265 -256 256 -265 -2 -2 -28 22 -56 55 -67 76 -116 125 -203 201 -105 92
-112 99 -95 88 8 -5 53 -41 98 -79z m2078 -14 c-19 -55 -40 -126 -47 -157 -7
-30 -16 -55 -21 -55 -12 0 -10 10 11 73 11 32 18 57 16 57 -4 0 52 167 61 182
18 28 10 -10 -20 -100z m-2836 52 c0 -2 -9 0 -20 6 -11 6 -20 13 -20 16 0 2 9
0 20 -6 11 -6 20 -13 20 -16z m4260 -7 c0 -2 -27 -25 -60 -50 -32 -25 -57 -41
-54 -34 3 7 28 29 57 49 54 38 57 40 57 35z m-4196 -36 c-2 -3 -12 3 -22 13
-16 17 -16 18 5 5 12 -7 20 -15 17 -18z m90 -50 c4 -5 -5 -4 -19 2 -14 7 -25
16 -25 20 0 9 36 -9 44 -22z m136 -97 c0 -7 -88 55 -96 67 -3 6 17 -6 45 -26
28 -20 51 -39 51 -41z m3765 11 c-38 -35 -99 -94 -134 -132 -60 -64 -61 -65
-15 -9 45 54 203 206 214 205 3 0 -26 -28 -65 -64z m-3700 -55 c3 -5 2 -10 -4
-10 -5 0 -13 5 -16 10 -3 6 -2 10 4 10 5 0 13 -4 16 -10z m70 -62 c19 -22 19
-22 -10 2 -48 40 -51 43 -30 32 11 -6 29 -21 40 -34z m2326 -73 c-11 -44 -20
-68 -20 -52 -1 29 31 156 36 141 1 -5 -6 -45 -16 -89z m-2256 15 c21 -22 37
-40 34 -40 -3 0 -23 18 -44 40 -21 22 -37 40 -34 40 3 0 23 -18 44 -40z m588
-32 c70 -95 109 -158 99 -158 -5 0 -14 12 -21 27 -7 15 -42 67 -77 115 -35 48
-62 88 -59 88 3 0 29 -33 58 -72z m2738 -45 c-22 -27 -50 -59 -61 -73 -12 -14
-7 -3 12 24 36 53 73 96 83 96 3 0 -12 -21 -34 -47z m-2127 -103 l7 -25 -14
25 c-8 14 -17 39 -20 55 l-6 30 13 -30 c8 -16 16 -41 20 -55z m1024 -3 c-6
-42 -15 -74 -18 -72 -4 3 0 38 8 80 19 96 26 91 10 -8z m-2053 13 c21 -22 37
-40 34 -40 -3 0 -23 18 -44 40 -21 22 -37 40 -34 40 3 0 23 -18 44 -40z m1563
-290 c0 -25 -6 9 -13 75 -16 153 -18 175 -15 205 4 33 29 -221 28 -280z m-993
195 c16 -27 24 -45 18 -40 -6 6 -23 33 -38 60 -16 28 -24 46 -18 40 6 -5 23
-32 38 -60z m2459 16 c-14 -23 -29 -41 -31 -41 -3 0 1 10 9 23 8 12 20 33 27
45 7 13 15 21 18 19 2 -3 -8 -24 -23 -46z m-1960 -42 c3 -13 -3 -6 -13 16 -11
22 -20 47 -20 55 0 17 23 -34 33 -71z m-978 14 c26 -31 43 -54 37 -52 -11 4
-97 109 -89 109 2 0 25 -25 52 -57z m2414 -44 c-11 -24 -17 -33 -14 -19 11 42
24 73 29 68 3 -3 -4 -25 -15 -49z m-473 9 c-3 -7 -5 -2 -5 12 0 14 2 19 5 13
2 -7 2 -19 0 -25z m951 -8 c-7 -10 -14 -17 -17 -15 -4 4 18 35 25 35 2 0 -1
-9 -8 -20z m-1889 -49 c6 -19 9 -36 7 -38 -2 -2 -11 17 -20 44 -9 26 -12 43
-7 38 4 -6 13 -25 20 -44z m926 -23 c-4 -35 -11 -70 -17 -78 -6 -11 -7 -6 -4
15 3 17 8 51 12 78 9 70 17 57 9 -15z m-1364 -29 c22 -45 38 -83 36 -85 -3 -4
-15 19 -74 139 -7 15 -11 27 -8 27 2 0 23 -36 46 -81z m1820 20 c-5 -13 -10
-19 -10 -12 -1 15 10 45 15 40 3 -2 0 -15 -5 -28z m-2282 -13 c-3 -3 -11 5
-18 17 -13 21 -12 21 5 5 10 -10 16 -20 13 -22z m2736 4 c-9 -16 -18 -30 -21
-30 -2 0 2 14 11 30 9 17 18 30 21 30 2 0 -2 -13 -11 -30z m-2705 -45 c14 -19
14 -19 -2 -6 -10 7 -18 18 -18 24 0 6 1 8 3 6 1 -2 9 -13 17 -24z m894 -1 c10
-37 2 -39 -11 -4 -6 17 -8 30 -3 30 4 0 11 -12 14 -26z m1334 -17 c-6 -20 -15
-37 -20 -37 -4 0 -1 16 7 36 8 20 15 39 15 42 0 3 2 3 5 1 2 -3 -1 -22 -7 -42z
m428 -24 c-8 -15 -15 -25 -16 -21 0 12 23 58 27 54 3 -2 -2 -17 -11 -33z
m-2612 -23 c14 -22 23 -40 19 -40 -5 0 -18 18 -31 40 -29 52 -22 52 12 0z
m1733 -7 c-3 -10 -5 -4 -5 12 0 17 2 24 5 18 2 -7 2 -21 0 -30z m-870 5 c-3
-8 -6 -5 -6 6 -1 11 2 17 5 13 3 -3 4 -12 1 -19z m1283 -63 c-10 -33 -19 -53
-19 -44 -1 18 30 112 35 107 2 -2 -5 -31 -16 -63z m438 30 c-6 -14 -13 -23
-15 -21 -5 5 15 46 22 46 3 0 -1 -11 -7 -25z m-2130 -10 c6 -14 10 -25 8 -25
-2 0 -11 11 -20 25 -9 14 -13 25 -8 25 5 0 14 -11 20 -25z m441 -80 c-2 -17
-27 69 -27 90 0 11 6 -2 14 -30 7 -27 13 -54 13 -60z m408 58 c-3 -10 -5 -4
-5 12 0 17 2 24 5 18 2 -7 2 -21 0 -30z m420 -20 c-3 -10 -5 -2 -5 17 0 19 2
27 5 18 2 -10 2 -26 0 -35z m-1648 -38 c13 -22 15 -31 6 -20 -18 22 -53 86
-38 70 6 -5 20 -28 32 -50z m2476 25 c-9 -16 -18 -30 -21 -30 -2 0 2 14 11 30
9 17 18 30 21 30 2 0 -2 -13 -11 -30z m-2066 -22 c6 -18 7 -28 2 -23 -10 12
-25 55 -18 55 3 0 10 -15 16 -32z m1226 -58 c-4 -34 -9 -59 -12 -57 -2 3 -1
33 3 66 4 34 9 60 11 57 3 -3 2 -32 -2 -66z m-396 -94 c1 -104 -6 -76 -12 49
-3 72 -2 94 3 65 5 -25 9 -76 9 -114z m799 96 c-6 -24 -13 -41 -15 -38 -2 2 1
23 7 46 6 23 13 40 15 38 2 -2 -1 -23 -7 -46z m-1588 -51 c-1 -13 -29 45 -29
59 0 8 6 0 14 -19 8 -18 15 -36 15 -40z m394 -6 c4 -28 3 -33 -2 -15 -16 46
-23 86 -13 70 5 -8 12 -33 15 -55z m1587 42 c-10 -9 -11 -8 -5 6 3 10 9 15 12
12 3 -3 0 -11 -7 -18z m-30 -74 c-12 -20 -14 -14 -5 12 4 9 9 14 11 11 3 -2 0
-13 -6 -23z m-774 -5 c-3 -8 -6 -5 -6 6 -1 11 2 17 5 13 3 -3 4 -12 1 -19z
m-1154 -18 c3 -11 1 -18 -4 -14 -5 3 -9 12 -9 20 0 20 7 17 13 -6z m395 -66
c-3 -14 -5 -12 -10 9 -3 19 -2 25 4 19 6 -6 8 -18 6 -28z m749 -21 c-3 -10 -5
-2 -5 17 0 19 2 27 5 18 2 -10 2 -26 0 -35z m744 10 c-8 -15 -10 -15 -11 -2 0
17 10 32 18 25 2 -3 -1 -13 -7 -23z m-1853 -28 c-3 -3 -9 2 -12 12 -6 14 -5
15 5 6 7 -7 10 -15 7 -18z m-358 -20 c0 -5 -5 -3 -10 5 -5 8 -10 20 -10 25 0
6 5 3 10 -5 5 -8 10 -19 10 -25z m727 3 c-3 -7 -5 -2 -5 12 0 14 2 19 5 13 2
-7 2 -19 0 -25z m1100 -10 c-3 -8 -6 -5 -6 6 -1 11 2 17 5 13 3 -3 4 -12 1
-19z"/>
<path d="M4107 5053 c26 -38 50 -70 53 -73 3 -3 25 -32 49 -65 113 -153 343
-377 526 -513 61 -45 122 -91 136 -101 14 -11 42 -28 62 -37 20 -10 37 -21 37
-24 0 -4 18 -15 40 -25 22 -10 40 -21 40 -25 0 -4 8 -10 18 -13 9 -2 25 -8 34
-12 16 -6 18 2 17 92 l0 98 -62 40 c-253 162 -543 428 -720 658 -48 62 -55 67
-90 67 -28 0 -36 -3 -31 -12 6 -10 4 -10 -7 0 -8 7 -40 12 -81 12 l-67 0 46
-67z m193 -55 c15 -21 17 -28 6 -19 -16 13 -41 51 -33 51 2 0 14 -15 27 -32z
m51 -65 c13 -16 12 -17 -3 -4 -17 13 -22 21 -14 21 2 0 10 -8 17 -17z m53 -59
c5 -14 4 -15 -9 -4 -17 14 -19 20 -6 20 5 0 12 -7 15 -16z m136 -139 c52 -52
92 -95 90 -95 -3 0 -48 43 -100 95 -52 52 -92 95 -90 95 3 0 48 -43 100 -95z
m124 -121 c5 -14 4 -15 -9 -4 -17 14 -19 20 -6 20 5 0 12 -7 15 -16z m61 -54
c10 -11 16 -20 13 -20 -3 0 -13 9 -23 20 -10 11 -16 20 -13 20 3 0 13 -9 23
-20z m104 -77 c2 -2 0 -3 -5 -3 -5 0 -25 14 -44 31 l-35 30 40 -27 c22 -16 42
-29 44 -31z m92 -70 c13 -16 12 -17 -3 -4 -17 13 -22 21 -14 21 2 0 10 -8 17
-17z m40 -30 c13 -16 12 -17 -3 -4 -17 13 -22 21 -14 21 2 0 10 -8 17 -17z
m60 -40 c13 -16 12 -17 -3 -4 -17 13 -22 21 -14 21 2 0 10 -8 17 -17z"/>
<path d="M4551 5018 c170 -184 411 -398 542 -481 l27 -17 0 98 0 99 -107 89
c-60 49 -159 140 -221 201 -102 101 -118 113 -149 113 -32 0 -34 -2 -22 -17
13 -17 13 -17 -7 0 -15 12 -38 17 -88 17 l-68 0 93 -102z m204 -58 c33 -33 57
-60 54 -60 -2 0 -31 27 -64 60 -33 33 -57 60 -54 60 2 0 31 -27 64 -60z m135
-125 c13 -14 21 -25 18 -25 -2 0 -15 11 -28 25 -13 14 -21 25 -18 25 2 0 15
-11 28 -25z m61 -52 c13 -16 12 -17 -3 -4 -10 7 -18 15 -18 17 0 8 8 3 21 -13z
m44 -33 c3 -6 -1 -7 -9 -4 -18 7 -21 14 -7 14 6 0 13 -4 16 -10z m76 -67 c13
-16 12 -17 -3 -4 -17 13 -22 21 -14 21 2 0 10 -8 17 -17z"/>
<path d="M4910 5068 c30 -28 89 -80 130 -115 l75 -65 3 57 c3 48 -1 62 -20 84
-23 26 -23 26 0 7 l22 -19 0 35 c0 21 -7 41 -18 51 -22 20 -97 24 -86 5 6 -10
4 -10 -7 0 -8 7 -40 12 -83 12 l-71 -1 55 -51z"/>
<path d="M4970 1357 c-547 -296 -922 -683 -1199 -1235 l-62 -123 102 3 101 3
32 57 c137 249 291 453 497 658 81 81 184 176 230 211 46 35 90 69 96 75 7 7
29 22 50 35 21 13 43 27 48 32 34 28 231 147 244 147 7 0 11 35 10 105 0 58
-4 105 -7 105 -4 0 -68 -33 -142 -73z m110 -21 c0 -2 -7 -7 -16 -10 -8 -3 -12
-2 -9 4 6 10 25 14 25 6z m-70 -40 c0 -2 -7 -7 -16 -10 -8 -3 -12 -2 -9 4 6
10 25 14 25 6z m-85 -46 c-3 -5 -12 -10 -18 -10 -7 0 -6 4 3 10 19 12 23 12
15 0z m-75 -44 c0 -2 -12 -11 -27 -20 l-28 -17 24 20 c23 21 31 25 31 17z
m-80 -50 c0 -3 -15 -14 -32 -26 l-33 -22 30 26 c31 27 35 29 35 22z m-170
-126 c0 -5 -5 -10 -11 -10 -5 0 -7 5 -4 10 3 6 8 10 11 10 2 0 4 -4 4 -10z
m-90 -73 c-8 -7 -72 -67 -141 -133 l-126 -119 134 133 c73 72 136 132 140 132
4 0 1 -6 -7 -13z m-270 -270 c0 -2 -12 -14 -27 -28 l-28 -24 24 28 c23 25 31
32 31 24z m-60 -71 c0 -2 -8 -10 -17 -17 -16 -13 -17 -12 -4 4 13 16 21 21 21
13z m-65 -80 c-37 -48 -42 -46 -9 4 15 22 29 38 31 36 3 -3 -7 -21 -22 -40z
m-81 -111 c-9 -14 -18 -25 -21 -25 -5 0 5 18 20 38 17 22 18 13 1 -13z m-73
-108 c-10 -9 -11 -8 -5 6 3 10 9 15 12 12 3 -3 0 -11 -7 -18z m-100 -170 c-10
-9 -11 -8 -5 6 3 10 9 15 12 12 3 -3 0 -11 -7 -18z m-58 -112 c-3 -9 -8 -14
-10 -11 -3 3 -2 9 2 15 9 16 15 13 8 -4z"/>
<path d="M0 1021 l0 -109 113 -88 c139 -109 365 -334 476 -474 46 -58 120
-160 165 -227 76 -116 83 -123 114 -123 24 0 31 4 26 13 -6 10 -4 10 7 0 7 -8
39 -13 71 -13 l59 0 -34 62 c-49 94 -218 353 -256 395 -9 10 -45 54 -81 98
-82 102 -240 259 -339 337 -42 33 -78 64 -81 68 -6 8 -90 67 -165 117 -27 18
-56 38 -62 43 -10 9 -13 -12 -13 -99z m71 -78 c13 -16 12 -17 -3 -4 -10 7 -18
15 -18 17 0 8 8 3 21 -13z m216 -176 c4 -7 -19 10 -50 37 -31 27 -57 51 -57
53 0 7 98 -76 107 -90z m233 -224 c0 -8 -13 5 -110 105 l-105 107 108 -105
c59 -57 107 -106 107 -107z m72 -85 c30 -44 16 -33 -27 20 -21 26 -28 38 -16
27 13 -11 32 -32 43 -47z m42 -54 c3 -8 2 -12 -4 -9 -6 3 -10 10 -10 16 0 14
7 11 14 -7z m102 -131 c15 -20 23 -33 16 -29 -13 8 -56 66 -49 66 3 0 17 -17
33 -37z m75 -110 c13 -16 12 -17 -3 -4 -10 7 -18 15 -18 17 0 8 8 3 21 -13z"/>
<path d="M4995 986 c-365 -247 -682 -581 -904 -948 l-22 -37 99 0 99 -1 44 63
c136 195 436 519 593 639 38 29 80 63 93 75 14 12 47 36 74 54 l49 31 -1 99
c0 54 -4 99 -8 99 -4 0 -56 -33 -116 -74z m-55 -121 c-7 -8 -17 -15 -23 -15
-6 0 -2 7 9 15 25 19 30 19 14 0z m-80 -59 c0 -2 -8 -10 -17 -17 -16 -13 -17
-12 -4 4 13 16 21 21 21 13z m-90 -70 c0 -2 -8 -10 -17 -17 -16 -13 -17 -12
-4 4 13 16 21 21 21 13z m-40 -40 c0 -2 -8 -10 -17 -17 -16 -13 -17 -12 -4 4
13 16 21 21 21 13z m-230 -231 c-7 -9 -15 -13 -19 -10 -3 3 1 10 9 15 21 14
24 12 10 -5z m-57 -59 c-10 -13 -20 -22 -22 -20 -4 4 29 44 36 44 2 0 -4 -11
-14 -24z m-33 -40 c0 -2 -8 -10 -17 -17 -16 -13 -17 -12 -4 4 13 16 21 21 21
13z m-30 -40 c0 -2 -8 -10 -17 -17 -16 -13 -17 -12 -4 4 13 16 21 21 21 13z
m-61 -76 c-18 -22 -34 -40 -36 -40 -6 0 39 64 52 72 19 14 16 8 -16 -32z m-98
-133 c-10 -9 -11 -8 -5 6 3 10 9 15 12 12 3 -3 0 -11 -7 -18z m-41 -71 c0 -2
-7 -9 -15 -16 -13 -11 -14 -10 -9 4 5 14 24 23 24 12z"/>
<path d="M1 627 l0 -104 157 -159 c86 -88 193 -205 237 -262 73 -93 83 -102
113 -102 24 0 31 4 26 13 -6 9 -4 9 8 -1 10 -8 37 -12 73 -10 l57 3 -44 60
c-24 33 -51 73 -61 88 -10 16 -26 36 -35 46 -9 9 -52 60 -94 112 -86 106 -281
299 -375 372 l-63 48 1 -104z m194 -207 c49 -49 87 -90 85 -90 -3 0 -46 41
-95 90 -49 50 -87 90 -85 90 3 0 46 -40 95 -90z m130 -140 l20 -25 -22 19
c-13 11 -23 24 -23 29 0 6 1 8 3 6 1 -2 11 -15 22 -29z m126 -147 c13 -16 12
-17 -3 -4 -17 13 -22 21 -14 21 2 0 10 -8 17 -17z"/>
<path d="M4999 606 c-178 -145 -404 -384 -561 -593 -7 -9 16 -12 91 -12 l100
-1 104 123 c104 122 232 249 334 330 l52 42 1 103 c0 56 -1 102 -3 102 -2 0
-55 -42 -118 -94z m71 -19 c0 -2 -10 -12 -22 -23 l-23 -19 19 23 c18 21 26 27
26 19z m-50 -41 c0 -2 -8 -10 -17 -17 -16 -13 -17 -12 -4 4 13 16 21 21 21 13z
m-50 -40 c0 -2 -8 -10 -17 -17 -16 -13 -17 -12 -4 4 13 16 21 21 21 13z m-90
-91 c-7 -8 -16 -15 -21 -15 -5 0 -1 8 9 18 20 22 31 19 12 -3z m-180 -178 c0
-2 -12 -14 -27 -28 l-28 -24 24 28 c23 25 31 32 31 24z m-50 -60 c0 -2 -10
-12 -22 -23 l-23 -19 19 23 c18 21 26 27 26 19z m-40 -51 c0 -2 -8 -10 -17
-17 -16 -13 -17 -12 -4 4 13 16 21 21 21 13z"/>
<path d="M0 276 c0 -58 4 -74 22 -95 l23 -26 -22 19 -23 19 0 -32 c0 -25 13
-47 57 -97 49 -55 61 -64 90 -64 25 0 32 3 27 13 -6 9 -4 9 8 -1 10 -8 37 -12
73 -10 l56 3 -55 65 c-30 36 -100 112 -155 170 l-100 105 -1 -69z"/>
<path d="M4950 170 l-165 -165 101 -3 101 -3 66 68 c67 68 67 68 67 126 0 40
-3 56 -11 51 -8 -4 -7 0 1 15 6 12 10 34 8 49 -4 25 -16 15 -168 -138z"/>
</g>
</svg>
